<svg width="51" height="51" viewBox="0 0 51 51" fill="none" xmlns="http://www.w3.org/2000/svg">
<path d="M25.9787 50.269C38.8011 50.269 49.1956 39.8516 49.1956 27.001C49.1956 14.1505 38.8011 3.73308 25.9787 3.73308C13.1563 3.73308 2.76172 14.1505 2.76172 27.001C2.76172 39.8516 13.1563 50.269 25.9787 50.269Z" fill="#E6DCEB"/>
<path d="M25.9787 47.3868C38.2716 47.3868 48.237 37.3995 48.237 25.0796C48.237 12.7596 38.2716 2.77235 25.9787 2.77235C13.6857 2.77235 3.72034 12.7596 3.72034 25.0796C3.72034 37.3995 13.6857 47.3868 25.9787 47.3868Z" fill="#FBFDFC"/>
<path d="M25.9787 44.0014C36.406 44.0014 44.859 35.5298 44.859 25.0796C44.859 14.6293 36.406 6.15778 25.9787 6.15778C15.5514 6.15778 7.09839 14.6293 7.09839 25.0796C7.09839 35.5298 15.5514 44.0014 25.9787 44.0014Z" fill="#1D7999"/>
<path d="M38.489 37.6197C45.3986 30.6948 45.3986 19.4675 38.4889 12.5427C31.5793 5.61782 20.3765 5.61781 13.4669 12.5426C6.5572 19.4675 6.5572 30.6948 13.4669 37.6197C20.3765 44.5445 31.5793 44.5445 38.489 37.6197Z" fill="#25A7DF"/>
<path d="M10.659 31.6766C10.659 21.8863 19.3049 13.9443 29.9684 13.9443C34.5972 13.9443 38.8425 15.4448 42.1658 17.9336C39.4269 11.7026 33.2095 7.34726 25.9787 7.34726C16.2099 7.34726 8.28528 15.2893 8.28528 25.0796C8.28528 28.465 9.23478 31.6217 10.869 34.3117C10.7321 33.4516 10.659 32.5733 10.659 31.6766Z" fill="#5EC3EF"/>
<path d="M17.6162 16.7473C19.8338 14.5248 20.8338 11.9236 19.8498 10.9374C18.8658 9.95124 16.2703 10.9535 14.0526 13.176C11.835 15.3985 10.835 17.9997 11.819 18.9859C12.803 19.9721 15.3985 18.9699 17.6162 16.7473Z" fill="#EFE9F4"/>
<g clip-path="url(#clip0_6_170)">
<path d="M26 15C20.477 15 16 19.477 16 25C16 30.523 20.477 35 26 35C31.523 35 36 30.523 36 25C36 19.477 31.523 15 26 15ZM31 26H24.414L26.707 28.293L25.293 29.707L20.586 25L25.293 20.293L26.707 21.707L24.414 24H31V26Z" fill="white"/>
</g>
<defs>
<clipPath id="clip0_6_170">
<rect width="24" height="24" fill="white" transform="translate(14 13)"/>
</clipPath>
</defs>
</svg>
