<svg width="132" height="39" viewBox="0 0 132 39" fill="none" xmlns="http://www.w3.org/2000/svg">
<rect x="1.50002" y="1.50006" width="129" height="36" rx="18" fill="#016A98" stroke="white" stroke-width="3"/>
<path d="M22.112 31.0614C25.7489 31.1793 28.901 26.4606 29.1147 20.522C29.3269 14.5463 26.5419 9.65102 22.9035 9.4961C19.2296 9.37963 16.1145 14.0969 15.9008 20.0355C15.6886 26.0112 18.475 30.9435 22.112 31.0614Z" fill="#DE6B25"/>
<path d="M18.6789 30.9247L19.443 9.38379L22.8851 9.50589L22.121 31.0468L18.6789 30.9247Z" fill="#DE6B25"/>
<path d="M18.6971 30.9349C22.334 31.0528 25.4862 26.3341 25.6998 20.3955C25.8765 14.4583 23.09 9.52596 19.4517 9.37104C15.8147 9.25313 12.6626 13.9718 12.4489 19.9104C12.2367 25.8861 15.0232 30.8184 18.6971 30.9349Z" fill="#FFD747"/>
<path d="M24.3632 20.3363C24.5346 15.2147 22.2878 10.8174 19.4295 10.7062C16.5342 10.5965 13.9569 14.848 13.7856 19.9696C13.6142 25.0912 15.8624 29.5256 18.7193 29.5997C21.5776 29.7109 24.1549 25.4593 24.3632 20.3363Z" fill="#FFBF36"/>
<path d="M22.0766 25.3919C22.248 20.2703 20.0012 15.873 17.1429 15.7618C16.0668 15.7296 15.0507 16.288 14.163 17.2862C14.9398 13.4383 17.0538 10.6133 19.3925 10.7076C22.2508 10.8188 24.5345 15.2147 24.3262 20.3377C24.2295 23.5661 23.1547 26.4248 21.6992 28.0752C21.8882 27.2154 22.0386 26.32 22.0766 25.3919Z" fill="#FFDA52"/>
<path d="M19.9096 11.6141C17.0528 11.54 14.474 15.7545 14.3027 20.8761C14.2127 23.3258 14.7076 25.5675 15.5169 27.3151C14.3717 25.5065 13.6758 22.8649 13.7856 19.9696C13.9569 14.848 16.5342 10.5965 19.3925 10.7076C20.8772 10.7611 22.2229 12.0059 23.1134 13.9357C22.2815 12.5596 21.1722 11.6762 19.9096 11.6141Z" fill="#F2A12E"/>
 </svg>
