<svg width="71" height="90" viewBox="0 0 71 90" fill="none" xmlns="http://www.w3.org/2000/svg">
<path d="M30.4937 1.47229C16.0614 1.00439 3.55272 19.7294 2.70487 43.2955C1.86274 67.0086 12.9145 86.4346 27.3525 87.0493C41.9316 87.5115 54.2934 68.7922 55.1413 45.2261C55.9834 21.5131 44.9259 1.9402 30.4937 1.47229Z" fill="#DE6B25"/>
<path d="M44.1168 2.01498L41.0846 87.4952L27.4254 87.0107L30.4576 1.53045L44.1168 2.01498Z" fill="#DE6B25"/>
<path d="M44.0446 1.97447C29.6124 1.50657 17.1037 20.2316 16.2558 43.7977C15.5548 67.3582 26.6123 86.931 41.0503 87.5458C55.4826 88.0137 67.9913 69.2887 68.8391 45.7225C69.6812 22.0095 58.6238 2.43666 44.0446 1.97447Z" fill="#FFD747"/>
<path d="M21.5602 44.0323C20.8804 64.3561 29.7961 81.8061 41.1386 82.2472C52.6279 82.6825 62.8554 65.8113 63.5353 45.4875C64.2152 25.1637 55.2938 7.56683 43.957 7.27262C32.6145 6.83156 22.387 23.7028 21.5602 44.0323Z" fill="#FFBF36"/>
<path d="M30.6335 23.9704C29.9536 44.2942 38.8694 61.7442 50.2119 62.1853C54.4822 62.3132 58.5143 60.0972 62.0372 56.1359C58.9544 71.4054 50.5657 82.6159 41.285 82.2417C29.9425 81.8006 20.8799 64.3564 21.7066 44.0268C22.0906 31.2157 26.3557 19.8715 32.1312 13.3222C31.3815 16.7343 30.7844 20.2875 30.6335 23.9704Z" fill="#FFDA52"/>
<path d="M39.2333 78.6445C50.5701 78.9387 60.8033 62.2143 61.4832 41.8905C61.8403 32.1692 59.8762 23.2736 56.6646 16.3387C61.2093 23.5159 63.9706 33.9984 63.5353 45.4877C62.8554 65.8115 52.6279 82.6828 41.2854 82.2417C35.3938 82.0297 30.0537 77.0897 26.5199 69.4319C29.8211 74.8925 34.2229 78.3983 39.2333 78.6445Z" fill="#F2A12E"/>
</svg>
