<svg width="191" height="61" viewBox="0 0 191 61" fill="none" xmlns="http://www.w3.org/2000/svg">
<path d="M15.2144 60.5702C10.6724 60.5702 6.40606 58.3469 3.50496 54.4659C1.24708 51.44 0 47.5984 0 43.6516V16.9186C0 12.5245 1.50963 8.3672 4.22695 5.20976C7.12806 1.85498 11.0268 0 15.2144 0H175.51C179.645 0 183.518 1.8155 186.406 5.1045C189.189 8.28826 190.725 12.485 190.725 16.9186V43.6516C190.725 48.0983 189.189 52.2951 186.406 55.4657C183.518 58.7547 179.645 60.5702 175.51 60.5702H15.2144Z" fill="#EADBE6"/>
<path d="M16.3171 56.6892C11.8013 56.6892 7.56126 54.6105 4.68641 50.9926C2.44166 48.1641 1.19458 44.5857 1.19458 40.9152V15.9714C1.19458 11.8798 2.69108 7.99882 5.39528 5.05188C8.27013 1.92075 12.1558 0.197327 16.3171 0.197327H175.615C179.724 0.197327 183.57 1.88129 186.445 4.95979C189.215 7.91989 190.738 11.8404 190.738 15.9845V40.9152C190.738 45.0593 189.215 48.9798 186.445 51.9399C183.57 55.0052 179.737 56.7024 175.615 56.7024H16.3171V56.6892Z" fill="#FBFDFC"/>
<path d="M16.3171 52.3082C13.1403 52.3082 10.1473 50.8348 8.09946 48.2562C6.47169 46.2039 5.56592 43.599 5.56592 40.902V15.9714C5.56592 12.985 6.65547 10.1564 8.61142 8.01199C10.6461 5.78863 13.3897 4.56512 16.3171 4.56512H175.615C178.503 4.56512 181.221 5.7623 183.255 7.93304C185.264 10.0775 186.367 12.9323 186.367 15.9582V40.8888C186.367 43.9147 185.264 46.7696 183.255 48.914C181.221 51.0847 178.516 52.2819 175.615 52.2819H16.3171V52.3082Z" fill="#1D7999"/>
<path d="M175.615 50.8479H16.3171C13.4816 50.8479 10.9481 49.4928 9.24156 47.3484C7.86321 45.6118 7.02307 43.3621 7.02307 40.902V15.9713C7.02307 13.2612 8.03386 10.801 9.68789 8.99866C11.3682 7.16998 13.7179 6.02539 16.3171 6.02539H175.615C178.188 6.02539 180.499 7.14366 182.192 8.93288C183.872 10.7353 184.909 13.2217 184.909 15.9582V40.8888C184.909 43.6384 183.872 46.1249 182.192 47.9141C180.499 49.7297 178.175 50.8479 175.615 50.8479Z" fill="#25A7DF"/>
<path d="M9.22838 47.3484C7.85003 45.6118 7.00989 43.3621 7.00989 40.902V15.9713C7.00989 13.2612 8.02068 10.801 9.6747 8.99866C11.355 7.16998 13.7047 6.02539 16.3039 6.02539H175.602C177.913 6.02539 180.026 6.93318 181.654 8.41981C181.838 8.59084 182.179 8.93288 182.179 8.93288C18.6537 16.366 9.22838 47.3484 9.22838 47.3484Z" fill="#5EC3EF"/>
<path d="M17.4976 16.0383C20.3018 13.228 21.5693 9.94188 20.3287 8.69856C19.0881 7.45524 15.8091 8.72555 13.005 11.5359C10.2008 14.3462 8.93331 17.6323 10.1739 18.8756C11.4145 20.1189 14.6934 18.8487 17.4976 16.0383Z" fill="#EFE9F4"/>
<path d="M74.0898 38.7969V44H56.7051V18.6348H74.0898V23.8379H63.1562V28.8828H73.4395V33.6289H63.1562V38.7969H74.0898ZM85.0938 39.9922C86.9922 39.9922 88.6445 38.832 88.6445 37.127V35.8086L85.1641 36.0371C83.5293 36.1602 82.6152 36.916 82.6152 38.041C82.6152 39.2539 83.6172 39.9922 85.0938 39.9922ZM82.8789 44.2812C79.3281 44.2812 76.4453 41.9258 76.4453 38.4629C76.4453 34.877 79.2051 32.873 84.1621 32.5742L88.6445 32.3105V31.2207C88.6445 29.6914 87.5547 28.8477 85.9199 28.8477C84.2324 28.8477 83.1602 29.7266 82.9844 30.9043H77.377C77.5527 26.9844 80.8926 24.4004 86.2363 24.4004C91.3516 24.4004 94.7441 27.0195 94.7441 30.8691V44H88.6797V41.2754H88.5566C87.5195 43.209 85.1816 44.2812 82.8789 44.2812ZM97.416 30.6582C97.416 26.8262 100.686 24.4004 105.959 24.4004C111.18 24.4004 114.432 26.8789 114.467 30.834H108.771C108.719 29.4629 107.629 28.6016 105.906 28.6016C104.377 28.6016 103.393 29.2695 103.393 30.2539C103.393 31.0098 104.096 31.5547 105.537 31.8535L109.545 32.6621C113.359 33.4707 114.994 35.0352 114.994 37.9355C114.994 41.9082 111.391 44.457 106.047 44.457C100.457 44.457 97.2227 41.9082 96.959 37.9883H103.006C103.182 39.4121 104.324 40.2559 106.152 40.2559C107.805 40.2559 108.824 39.6582 108.824 38.6387C108.824 37.8652 108.244 37.4258 106.75 37.1094L103.129 36.3535C99.3848 35.5625 97.416 33.5938 97.416 30.6582ZM119.951 51.0488C119.863 51.0488 117.771 51.0488 117.684 51.0312V46.3203C117.771 46.3379 118.932 46.3555 119.037 46.3555C120.988 46.3555 121.92 45.8633 122.078 44.7031C122.078 44.5977 122.148 44.123 122.113 44L115.662 24.8574H122.535L125.998 39.3242H126.104L129.549 24.8574H136.123L130.006 43.9473C128.371 49.0801 125.559 51.0488 119.951 51.0488Z" fill="white"/>
</svg>
