<svg width="191" height="61" viewBox="0 0 191 61" fill="none" xmlns="http://www.w3.org/2000/svg">
<path d="M15.2144 60.5702C10.6724 60.5702 6.40606 58.3469 3.50496 54.4659C1.24708 51.44 0 47.5984 0 43.6516V16.9186C0 12.5245 1.50963 8.3672 4.22695 5.20976C7.12806 1.85498 11.0268 3.8147e-06 15.2144 3.8147e-06H175.51C179.645 3.8147e-06 183.518 1.81551 186.406 5.10451C189.189 8.28826 190.725 12.485 190.725 16.9186V43.6516C190.725 48.0983 189.189 52.2951 186.406 55.4657C183.518 58.7547 179.645 60.5702 175.51 60.5702H15.2144Z" fill="#EADBE6"/>
<path d="M16.3171 56.6892C11.8013 56.6892 7.56126 54.6105 4.68641 50.9926C2.44166 48.1641 1.19458 44.5857 1.19458 40.9152V15.9714C1.19458 11.8798 2.69108 7.99883 5.39528 5.05188C8.27013 1.92075 12.1558 0.19733 16.3171 0.19733H175.615C179.724 0.19733 183.57 1.88129 186.445 4.9598C189.215 7.9199 190.738 11.8404 190.738 15.9845V40.9152C190.738 45.0593 189.215 48.9798 186.445 51.9399C183.57 55.0052 179.737 56.7024 175.615 56.7024H16.3171V56.6892Z" fill="#FBFDFC"/>
<path d="M16.3171 52.3082C13.1403 52.3082 10.1473 50.8348 8.09946 48.2562C6.47169 46.2039 5.56592 43.599 5.56592 40.902V15.9714C5.56592 12.985 6.65547 10.1564 8.61142 8.01199C10.6461 5.78863 13.3897 4.56512 16.3171 4.56512H175.615C178.503 4.56512 181.221 5.7623 183.255 7.93304C185.264 10.0775 186.367 12.9323 186.367 15.9582V40.8888C186.367 43.9147 185.264 46.7696 183.255 48.914C181.221 51.0847 178.516 52.2819 175.615 52.2819H16.3171V52.3082Z" fill="#991D1D"/>
<path d="M175.592 50.8225H16.294C13.4586 50.8225 10.925 49.4674 9.21849 47.323C7.84014 45.5864 7 43.3368 7 40.8766V15.946C7 13.2358 8.01079 10.7756 9.66482 8.97327C11.3451 7.14459 13.6949 6 16.294 6H175.592C178.165 6 180.476 7.11827 182.169 8.90749C183.849 10.7099 184.886 13.1963 184.886 15.9328V40.8634C184.886 43.613 183.849 46.0995 182.169 47.8887C180.476 49.7043 178.152 50.8225 175.592 50.8225Z" fill="#DF2525"/>
<path d="M9.22838 47.3484C7.85003 45.6118 7.00989 43.3621 7.00989 40.902V15.9713C7.00989 13.2612 8.02068 10.801 9.6747 8.99866C11.355 7.16998 13.7047 6.02539 16.3039 6.02539H175.602C177.913 6.02539 180.026 6.93318 181.654 8.41981C181.838 8.59084 182.179 8.93288 182.179 8.93288C18.6537 16.366 9.22838 47.3484 9.22838 47.3484Z" fill="#EF5E5E"/>
<path d="M17.4976 16.0383C20.3018 13.228 21.5693 9.94188 20.3287 8.69856C19.0881 7.45524 15.8091 8.72555 13.005 11.5359C10.2008 14.3462 8.93331 17.6323 10.1739 18.8756C11.4145 20.1189 14.6934 18.8487 17.4976 16.0383Z" fill="#EFE9F4"/>
<path d="M78.9062 44H72.4727V33.7871H62.3652V44H55.9141V18.6348H62.3652V28.584H72.4727V18.6348H78.9062V44ZM89.9277 39.9922C91.8262 39.9922 93.4785 38.832 93.4785 37.127V35.8086L89.998 36.0371C88.3633 36.1602 87.4492 36.916 87.4492 38.041C87.4492 39.2539 88.4512 39.9922 89.9277 39.9922ZM87.7129 44.2812C84.1621 44.2812 81.2793 41.9258 81.2793 38.4629C81.2793 34.877 84.0391 32.873 88.9961 32.5742L93.4785 32.3105V31.2207C93.4785 29.6914 92.3887 28.8477 90.7539 28.8477C89.0664 28.8477 87.9941 29.7266 87.8184 30.9043H82.2109C82.3867 26.9844 85.7266 24.4004 91.0703 24.4004C96.1855 24.4004 99.5781 27.0195 99.5781 30.8691V44H93.5137V41.2754H93.3906C92.3535 43.209 90.0156 44.2812 87.7129 44.2812ZM102.566 44V24.8574H108.631V28.4785H108.754C109.457 25.8945 111.004 24.5762 113.254 24.5762C113.887 24.5762 114.414 24.6641 114.836 24.8223V30.1309C114.309 29.9199 113.588 29.7793 112.85 29.7793C110.23 29.7793 108.807 31.2559 108.807 33.9277V44H102.566ZM123.291 44.2812C118.527 44.2812 115.662 40.5723 115.662 34.3848C115.662 28.2676 118.58 24.5762 123.361 24.5762C126.139 24.5762 128.248 26.0879 129.092 28.2324H129.215V18.6348H135.438V44H129.25V40.7129H129.127C128.354 42.752 126.139 44.2812 123.291 44.2812ZM125.629 29.4453C123.396 29.4453 122.043 31.3613 122.043 34.4375C122.043 37.5312 123.379 39.4121 125.629 39.4121C127.879 39.4121 129.232 37.5488 129.232 34.4375C129.232 31.3613 127.861 29.4453 125.629 29.4453Z" fill="white"/>
</svg>
