<svg width="191" height="61" viewBox="0 0 191 61" fill="none" xmlns="http://www.w3.org/2000/svg">
<path d="M15.2144 60.5702C10.6724 60.5702 6.40606 58.3469 3.50496 54.4659C1.24708 51.44 0 47.5984 0 43.6516V16.9186C0 12.5245 1.50963 8.3672 4.22695 5.20976C7.12806 1.85498 11.0268 1.90735e-06 15.2144 1.90735e-06H175.51C179.645 1.90735e-06 183.518 1.8155 186.406 5.10451C189.189 8.28826 190.725 12.485 190.725 16.9186V43.6516C190.725 48.0983 189.189 52.2951 186.406 55.4657C183.518 58.7547 179.645 60.5702 175.51 60.5702H15.2144Z" fill="#EADBE6"/>
<path d="M16.3171 56.6892C11.8013 56.6892 7.56126 54.6105 4.68641 50.9926C2.44166 48.1641 1.19458 44.5857 1.19458 40.9152V15.9714C1.19458 11.8798 2.69108 7.99883 5.39528 5.05188C8.27013 1.92075 12.1558 0.197329 16.3171 0.197329H175.615C179.724 0.197329 183.57 1.88129 186.445 4.95979C189.215 7.9199 190.738 11.8404 190.738 15.9845V40.9152C190.738 45.0593 189.215 48.9798 186.445 51.9399C183.57 55.0052 179.737 56.7024 175.615 56.7024H16.3171V56.6892Z" fill="#FBFDFC"/>
<path d="M16.3171 52.3082C13.1403 52.3082 10.1473 50.8348 8.09946 48.2562C6.47169 46.2039 5.56592 43.599 5.56592 40.902V15.9714C5.56592 12.985 6.65547 10.1564 8.61142 8.01199C10.6461 5.78863 13.3897 4.56513 16.3171 4.56513H175.615C178.503 4.56513 181.221 5.7623 183.255 7.93304C185.264 10.0775 186.367 12.9323 186.367 15.9582V40.8888C186.367 43.9147 185.264 46.7696 183.255 48.914C181.221 51.0847 178.516 52.2819 175.615 52.2819H16.3171V52.3082Z" fill="#1D7999"/>
<path d="M175.615 50.8479H16.3171C13.4816 50.8479 10.9481 49.4928 9.24156 47.3484C7.86321 45.6118 7.02307 43.3621 7.02307 40.902V15.9713C7.02307 13.2612 8.03386 10.801 9.68789 8.99866C11.3682 7.16998 13.7179 6.02539 16.3171 6.02539H175.615C178.188 6.02539 180.499 7.14367 182.192 8.93288C183.872 10.7353 184.909 13.2217 184.909 15.9582V40.8888C184.909 43.6384 183.872 46.1249 182.192 47.9141C180.499 49.7297 178.175 50.8479 175.615 50.8479Z" fill="#25A7DF"/>
<path d="M9.22838 47.3484C7.85003 45.6118 7.00989 43.3621 7.00989 40.902V15.9713C7.00989 13.2612 8.02068 10.801 9.6747 8.99866C11.355 7.16998 13.7047 6.02539 16.3039 6.02539H175.602C177.913 6.02539 180.026 6.93318 181.654 8.41981C181.838 8.59084 182.179 8.93288 182.179 8.93288C18.6537 16.366 9.22838 47.3484 9.22838 47.3484Z" fill="#5EC3EF"/>
<path d="M17.4977 16.0383C20.3018 13.228 21.5693 9.94188 20.3287 8.69856C19.0881 7.45524 15.8092 8.72555 13.0051 11.5359C10.2009 14.3462 8.93337 17.6323 10.174 18.8756C11.4146 20.1189 14.6935 18.8487 17.4977 16.0383Z" fill="#EFE9F4"/>
<path d="M49.7061 39H45.7744V32.7588H39.5977V39H35.6553V23.499H39.5977V29.5791H45.7744V23.499H49.7061V39ZM57.4404 39.2793C53.7559 39.2793 51.457 37.0449 51.457 33.1455C51.457 29.3213 53.8096 27.0225 57.4404 27.0225C61.0928 27.0225 63.4238 29.3105 63.4238 33.1455C63.4238 37.0557 61.125 39.2793 57.4404 39.2793ZM57.4404 36.4863C58.7402 36.4863 59.5674 35.2939 59.5674 33.1562C59.5674 31.0508 58.7402 29.8154 57.4404 29.8154C56.1514 29.8154 55.3242 31.0508 55.3242 33.1562C55.3242 35.2939 56.1299 36.4863 57.4404 36.4863ZM81.9111 27.3018L78.8926 39H74.7891L72.9307 31.126H72.8555L71.0293 39H66.9902L63.9502 27.3018H67.7959L69.2891 35.5625H69.3643L71.1475 27.3018H74.7891L76.5938 35.5625H76.6689L78.1514 27.3018H81.9111ZM88.2168 24.6807H92.0303V27.3018H94.1357V30.1055H92.0303V35.0146C92.0303 35.8203 92.46 36.2285 93.373 36.2285C93.6738 36.2285 93.8994 36.2178 94.125 36.1748V38.8818C93.7598 38.957 93.2012 39.0215 92.46 39.0215C89.4199 39.0215 88.2168 38.0869 88.2168 35.7881V30.1055H86.627V27.3018H88.2168V24.6807ZM101.247 39.2793C97.5625 39.2793 95.2637 37.0449 95.2637 33.1455C95.2637 29.3213 97.6162 27.0225 101.247 27.0225C104.899 27.0225 107.23 29.3105 107.23 33.1455C107.23 37.0557 104.932 39.2793 101.247 39.2793ZM101.247 36.4863C102.547 36.4863 103.374 35.2939 103.374 33.1562C103.374 31.0508 102.547 29.8154 101.247 29.8154C99.958 29.8154 99.1309 31.0508 99.1309 33.1562C99.1309 35.2939 99.9365 36.4863 101.247 36.4863ZM120.39 27.1299C123.344 27.1299 125.062 29.332 125.062 33.1562C125.062 36.9697 123.354 39.1719 120.443 39.1719C118.725 39.1719 117.436 38.3555 116.866 37.002H116.791V42.7812H112.978V27.3018H116.77V29.3857H116.845C117.436 27.9785 118.703 27.1299 120.39 27.1299ZM118.972 36.1963C120.325 36.1963 121.174 35.0146 121.174 33.1562C121.174 31.2979 120.314 30.1055 118.972 30.1055C117.64 30.1055 116.78 31.3086 116.77 33.1562C116.78 35.0146 117.629 36.1963 118.972 36.1963ZM126.62 39V23.499H130.434V39H126.62ZM137.18 36.5508C138.34 36.5508 139.35 35.8418 139.35 34.7998V33.9941L137.223 34.1338C136.224 34.209 135.665 34.6709 135.665 35.3584C135.665 36.0996 136.277 36.5508 137.18 36.5508ZM135.826 39.1719C133.656 39.1719 131.895 37.7324 131.895 35.6162C131.895 33.4248 133.581 32.2002 136.61 32.0176L139.35 31.8564V31.1904C139.35 30.2559 138.684 29.7402 137.685 29.7402C136.653 29.7402 135.998 30.2773 135.891 30.9971H132.464C132.571 28.6016 134.612 27.0225 137.878 27.0225C141.004 27.0225 143.077 28.623 143.077 30.9756V39H139.371V37.335H139.296C138.662 38.5166 137.233 39.1719 135.826 39.1719ZM146.579 43.3076C146.525 43.3076 145.247 43.3076 145.193 43.2969V40.418C145.247 40.4287 145.956 40.4395 146.021 40.4395C147.213 40.4395 147.782 40.1387 147.879 39.4297C147.879 39.3652 147.922 39.0752 147.9 39L143.958 27.3018H148.158L150.274 36.1426H150.339L152.444 27.3018H156.462L152.724 38.9678C151.725 42.1045 150.006 43.3076 146.579 43.3076Z" fill="white"/>
</svg>
