<svg width="32" height="31" viewBox="0 0 32 31" fill="none" xmlns="http://www.w3.org/2000/svg">
<path d="M16.2316 30.7741C24.0819 30.7741 30.4459 24.3961 30.4459 16.5285C30.4459 8.66096 24.0819 2.28302 16.2316 2.28302C8.38124 2.28302 2.01727 8.66096 2.01727 16.5285C2.01727 24.3961 8.38124 30.7741 16.2316 30.7741Z" fill="#E6DCEB"/>
<path d="M16.2315 29.0095C23.7577 29.0095 29.8589 22.8949 29.8589 15.3522C29.8589 7.80942 23.7577 1.69482 16.2315 1.69482C8.70533 1.69482 2.60413 7.80942 2.60413 15.3522C2.60413 22.8949 8.70533 29.0095 16.2315 29.0095Z" fill="#FBFDFC"/>
<path d="M16.2316 26.9368C22.6156 26.9368 27.7908 21.7502 27.7908 15.3522C27.7908 8.95414 22.6156 3.76752 16.2316 3.76752C9.84756 3.76752 4.6723 8.95414 4.6723 15.3522C4.6723 21.7502 9.84756 26.9368 16.2316 26.9368Z" fill="#1D7999"/>
<path d="M23.8909 23.0297C28.1212 18.7901 28.1212 11.9162 23.8908 7.67659C19.6605 3.43694 12.8017 3.43694 8.57137 7.67659C4.34101 11.9162 4.341 18.7901 8.57136 23.0297C12.8017 27.2694 19.6605 27.2694 23.8909 23.0297Z" fill="#25A7DF"/>
<path d="M6.85222 19.3911C6.85222 13.3971 12.1456 8.5347 18.6742 8.5347C21.5081 8.5347 24.1073 9.4534 26.1419 10.9771C24.465 7.16224 20.6585 4.49576 16.2315 4.49576C10.2507 4.49576 5.39893 9.35817 5.39893 15.3522C5.39893 17.4248 5.98025 19.3575 6.98078 21.0044C6.89694 20.4779 6.85222 19.9401 6.85222 19.3911Z" fill="#5EC3EF"/>
<path d="M11.1117 10.2509C12.4695 8.89015 13.0817 7.29761 12.4793 6.69382C11.8768 6.09003 10.2877 6.70364 8.93001 8.06435C7.57228 9.42506 6.96001 11.0176 7.56248 11.6214C8.16495 12.2252 9.754 11.6116 11.1117 10.2509Z" fill="#EFE9F4"/>
<path d="M22.0571 18.2114H10.3728V13.0995H22.0571V18.2114Z" fill="white"/>
</svg>
