<svg width="165" height="53" viewBox="0 0 165 53" fill="none" xmlns="http://www.w3.org/2000/svg">
<path d="M13.1433 52.3251C9.21961 52.3251 5.53403 50.4044 3.02784 47.0517C1.07732 44.4377 0 41.1191 0 37.7095V14.6156C0 10.8197 1.30413 7.22827 3.65155 4.50064C6.15775 1.60253 9.52579 6.10352e-05 13.1433 6.10352e-05H151.619C155.191 6.10352e-05 158.536 1.56843 161.031 4.40971C163.435 7.16007 164.762 10.7856 164.762 14.6156V37.7095C164.762 41.551 163.435 45.1764 161.031 47.9154C158.536 50.7567 155.191 52.3251 151.619 52.3251H13.1433Z" fill="#EADBE6"/>
<path d="M14.0959 48.9724C10.1949 48.9724 6.532 47.1767 4.04848 44.0513C2.1093 41.6078 1.03198 38.5165 1.03198 35.3456V13.7973C1.03198 10.2628 2.32477 6.91005 4.66086 4.36426C7.14437 1.65935 10.5011 0.170532 14.0959 0.170532H151.71C155.259 0.170532 158.582 1.62526 161.065 4.28471C163.458 6.84186 164.774 10.2287 164.774 13.8087V35.3456C164.774 38.9256 163.458 42.3124 161.065 44.8696C158.582 47.5177 155.27 48.9838 151.71 48.9838H14.0959V48.9724Z" fill="#FBFDFC"/>
<path d="M14.0959 45.1878C11.3515 45.1878 8.76597 43.9149 6.99689 41.6873C5.5907 39.9144 4.80823 37.6641 4.80823 35.3342V13.7973C4.80823 11.2174 5.74947 8.7739 7.43916 6.92138C9.1969 5.00068 11.567 3.94373 14.0959 3.94373H151.71C154.204 3.94373 156.552 4.97794 158.31 6.85318C160.045 8.7057 160.997 11.1719 160.997 13.7859V35.3228C160.997 37.9368 160.045 40.4031 158.31 42.2556C156.552 44.1308 154.216 45.1651 151.71 45.1651H14.0959V45.1878Z" fill="#1D7999"/>
<path d="M151.71 43.9263H14.0959C11.6464 43.9263 9.45775 42.7557 7.98352 40.9032C6.79279 39.403 6.06702 37.4595 6.06702 35.3342V13.7973C6.06702 11.4561 6.94021 9.33082 8.36908 7.77379C9.82063 6.19404 11.8505 5.20526 14.0959 5.20526H151.71C153.932 5.20526 155.928 6.17131 157.391 7.71697C158.843 9.27399 159.738 11.422 159.738 13.7859V35.3229C159.738 37.6982 158.843 39.8462 157.391 41.3919C155.928 42.9603 153.921 43.9263 151.71 43.9263Z" fill="#25A7DF"/>
<path d="M7.97216 40.9032C6.78144 39.403 6.05566 37.4595 6.05566 35.3342V13.7973C6.05566 11.4561 6.92886 9.33082 8.35773 7.77379C9.80928 6.19404 11.8392 5.20526 14.0845 5.20526H151.698C153.694 5.20526 155.52 5.98948 156.926 7.27374C157.085 7.42148 157.38 7.71697 157.38 7.71697C16.1145 14.1383 7.97216 40.9032 7.97216 40.9032Z" fill="#5EC3EF"/>
<path d="M15.1158 13.8552C17.5382 11.4274 18.6332 8.5886 17.5615 7.51453C16.4897 6.44046 13.6572 7.53784 11.2347 9.9656C8.81229 12.3934 7.71731 15.2322 8.78903 16.3062C9.86075 17.3803 12.6933 16.2829 15.1158 13.8552Z" fill="#EFE9F4"/>
<path d="M54.1006 36.1414H49.6826V17.8221H53.4023L61.1719 28.4734H61.2734V17.8221H65.6914V36.1414H62.0098L54.2021 25.3885H54.1006V36.1414ZM81.0273 32.3836V36.1414H68.4717V17.8221H81.0273V21.5799H73.1309V25.2234H80.5576V28.6512H73.1309V32.3836H81.0273ZM82.8047 36.1414L88.4033 26.9627V26.8611L82.8174 17.8221H88.251L91.6152 24.0174H91.7041L95.0938 17.8221H100.261L94.4336 26.9119V27.0008L100.21 36.1414H94.9795L91.4248 30.2H91.3232L87.7559 36.1414H82.8047ZM111.064 36.1414H106.418V21.5799H101.365V17.8221H116.117V21.5799H111.064V36.1414Z" fill="white"/>
</svg>
