<svg width="191" height="61" viewBox="0 0 191 61" fill="none" xmlns="http://www.w3.org/2000/svg">
<path d="M15.2144 60.5702C10.6724 60.5702 6.40606 58.3469 3.50496 54.4659C1.24708 51.44 0 47.5984 0 43.6516V16.9186C0 12.5245 1.50963 8.3672 4.22695 5.20976C7.12806 1.85498 11.0268 1.90735e-06 15.2144 1.90735e-06H175.51C179.645 1.90735e-06 183.518 1.8155 186.406 5.10451C189.189 8.28826 190.725 12.485 190.725 16.9186V43.6516C190.725 48.0983 189.189 52.2951 186.406 55.4657C183.518 58.7547 179.645 60.5702 175.51 60.5702H15.2144Z" fill="#EADBE6"/>
<path d="M16.3171 56.6892C11.8013 56.6892 7.56126 54.6105 4.68641 50.9926C2.44166 48.1641 1.19458 44.5857 1.19458 40.9152V15.9714C1.19458 11.8798 2.69108 7.99883 5.39528 5.05188C8.27013 1.92075 12.1558 0.197329 16.3171 0.197329H175.615C179.724 0.197329 183.57 1.88129 186.445 4.95979C189.215 7.9199 190.738 11.8404 190.738 15.9845V40.9152C190.738 45.0593 189.215 48.9798 186.445 51.9399C183.57 55.0052 179.737 56.7024 175.615 56.7024H16.3171V56.6892Z" fill="#FBFDFC"/>
<path d="M16.3171 52.3082C13.1403 52.3082 10.1473 50.8348 8.09946 48.2562C6.47169 46.2039 5.56592 43.599 5.56592 40.902V15.9714C5.56592 12.985 6.65547 10.1564 8.61142 8.01199C10.6461 5.78863 13.3897 4.56513 16.3171 4.56513H175.615C178.503 4.56513 181.221 5.7623 183.255 7.93304C185.264 10.0775 186.367 12.9323 186.367 15.9582V40.8888C186.367 43.9147 185.264 46.7696 183.255 48.914C181.221 51.0847 178.516 52.2819 175.615 52.2819H16.3171V52.3082Z" fill="#99991D"/>
<path d="M175.615 50.8479H16.3171C13.4816 50.8479 10.9481 49.4928 9.24156 47.3484C7.86321 45.6118 7.02307 43.3621 7.02307 40.902V15.9713C7.02307 13.2612 8.03386 10.801 9.68789 8.99866C11.3682 7.16998 13.7179 6.02539 16.3171 6.02539H175.615C178.188 6.02539 180.499 7.14367 182.192 8.93288C183.872 10.7353 184.909 13.2217 184.909 15.9582V40.8888C184.909 43.6384 183.872 46.1249 182.192 47.9141C180.499 49.7297 178.175 50.8479 175.615 50.8479Z" fill="#99991D"/>
<path d="M9.22838 47.3484C7.85003 45.6118 7.00989 43.3621 7.00989 40.902V15.9713C7.00989 13.2612 8.02068 10.801 9.6747 8.99866C11.355 7.16998 13.7047 6.02539 16.3039 6.02539H175.602C177.913 6.02539 180.026 6.93318 181.654 8.41981C181.838 8.59084 182.179 8.93288 182.179 8.93288C18.6537 16.366 9.22838 47.3484 9.22838 47.3484Z" fill="#99991D"/>
<path d="M17.4976 16.0383C20.3018 13.228 21.5693 9.94188 20.3287 8.69856C19.0881 7.45524 15.8091 8.72555 13.005 11.5359C10.2008 14.3462 8.93331 17.6323 10.1739 18.8756C11.4145 20.1189 14.6934 18.8487 17.4976 16.0383Z" fill="#EFE9F4"/>
<path d="M41.6055 44H35.4883V18.6348H40.6387L51.3965 33.3828H51.5371V18.6348H57.6543V44H52.5566L41.7461 29.1113H41.6055V44ZM70.293 44.457C64.2637 44.457 60.502 40.8008 60.502 34.4199C60.502 28.1621 64.3516 24.4004 70.293 24.4004C76.2695 24.4004 80.084 28.1445 80.084 34.4199C80.084 40.8184 76.3223 44.457 70.293 44.457ZM70.293 39.8867C72.4199 39.8867 73.7734 37.9355 73.7734 34.4375C73.7734 30.9922 72.4199 28.9707 70.293 28.9707C68.1836 28.9707 66.8301 30.9922 66.8301 34.4375C66.8301 37.9355 68.1484 39.8867 70.293 39.8867ZM82.4922 44V24.8574H88.5566V28.4785H88.6797C89.3828 25.8945 90.9297 24.5762 93.1797 24.5762C93.8125 24.5762 94.3398 24.6641 94.7617 24.8223V30.1309C94.2344 29.9199 93.5137 29.7793 92.7754 29.7793C90.1562 29.7793 88.7324 31.2559 88.7324 33.9277V44H82.4922ZM96.6602 44V24.8574H102.725V28.5488H102.848C103.604 26.0879 105.695 24.4883 108.314 24.4883C111.162 24.4883 113.096 25.9648 113.641 28.5664H113.764C114.502 26.1055 116.822 24.4883 119.67 24.4883C123.414 24.4883 125.963 27.125 125.963 31.0098V44H119.723V32.5918C119.723 30.5879 118.791 29.5508 117.033 29.5508C115.346 29.5508 114.291 30.7637 114.291 32.6445V44H108.332V32.5215C108.332 30.6055 107.383 29.5508 105.678 29.5508C103.99 29.5508 102.9 30.7988 102.9 32.6797V44H96.6602ZM136.826 39.9922C138.725 39.9922 140.377 38.832 140.377 37.127V35.8086L136.896 36.0371C135.262 36.1602 134.348 36.916 134.348 38.041C134.348 39.2539 135.35 39.9922 136.826 39.9922ZM134.611 44.2812C131.061 44.2812 128.178 41.9258 128.178 38.4629C128.178 34.877 130.938 32.873 135.895 32.5742L140.377 32.3105V31.2207C140.377 29.6914 139.287 28.8477 137.652 28.8477C135.965 28.8477 134.893 29.7266 134.717 30.9043H129.109C129.285 26.9844 132.625 24.4004 137.969 24.4004C143.084 24.4004 146.477 27.0195 146.477 30.8691V44H140.412V41.2754H140.289C139.252 43.209 136.914 44.2812 134.611 44.2812ZM149.57 44V18.6348H155.811V44H149.57Z" fill="white"/>
</svg>
