<svg width="191" height="61" viewBox="0 0 191 61" fill="none" xmlns="http://www.w3.org/2000/svg">
<path d="M15.2144 60.5702C10.6724 60.5702 6.40606 58.3469 3.50496 54.4659C1.24708 51.44 0 47.5984 0 43.6516V16.9186C0 12.5245 1.50963 8.3672 4.22695 5.20976C7.12806 1.85498 11.0268 0 15.2144 0H175.51C179.645 0 183.518 1.8155 186.406 5.1045C189.189 8.28826 190.725 12.485 190.725 16.9186V43.6516C190.725 48.0983 189.189 52.2951 186.406 55.4657C183.518 58.7547 179.645 60.5702 175.51 60.5702H15.2144Z" fill="#EADBE6"/>
<path d="M16.3171 56.6892C11.8013 56.6892 7.56126 54.6105 4.68641 50.9926C2.44166 48.1641 1.19458 44.5857 1.19458 40.9152V15.9714C1.19458 11.8798 2.69108 7.99882 5.39528 5.05188C8.27013 1.92075 12.1558 0.197327 16.3171 0.197327H175.615C179.724 0.197327 183.57 1.88129 186.445 4.95979C189.215 7.91989 190.738 11.8404 190.738 15.9845V40.9152C190.738 45.0593 189.215 48.9798 186.445 51.9399C183.57 55.0052 179.737 56.7024 175.615 56.7024H16.3171V56.6892Z" fill="#FBFDFC"/>
<path d="M16.3171 52.3082C13.1403 52.3082 10.1473 50.8348 8.09946 48.2562C6.47169 46.2039 5.56592 43.599 5.56592 40.902V15.9714C5.56592 12.985 6.65547 10.1564 8.61142 8.01199C10.6461 5.78863 13.3897 4.56512 16.3171 4.56512H175.615C178.503 4.56512 181.221 5.7623 183.255 7.93304C185.264 10.0775 186.367 12.9323 186.367 15.9582V40.8888C186.367 43.9147 185.264 46.7696 183.255 48.914C181.221 51.0847 178.516 52.2819 175.615 52.2819H16.3171V52.3082Z" fill="#1D7999"/>
<path d="M175.615 50.8479H16.3171C13.4816 50.8479 10.9481 49.4928 9.24156 47.3484C7.86321 45.6118 7.02307 43.3621 7.02307 40.902V15.9713C7.02307 13.2612 8.03386 10.801 9.68789 8.99866C11.3682 7.16998 13.7179 6.02539 16.3171 6.02539H175.615C178.188 6.02539 180.499 7.14366 182.192 8.93288C183.872 10.7353 184.909 13.2217 184.909 15.9582V40.8888C184.909 43.6384 183.872 46.1249 182.192 47.9141C180.499 49.7297 178.175 50.8479 175.615 50.8479Z" fill="#25A7DF"/>
<path d="M9.22838 47.3484C7.85003 45.6118 7.00989 43.3621 7.00989 40.902V15.9713C7.00989 13.2612 8.02068 10.801 9.6747 8.99866C11.355 7.16998 13.7047 6.02539 16.3039 6.02539H175.602C177.913 6.02539 180.026 6.93318 181.654 8.41981C181.838 8.59084 182.179 8.93288 182.179 8.93288C18.6537 16.366 9.22838 47.3484 9.22838 47.3484Z" fill="#5EC3EF"/>
<path d="M17.4977 16.0383C20.3018 13.228 21.5693 9.94188 20.3287 8.69856C19.0881 7.45524 15.8092 8.72555 13.0051 11.5359C10.2009 14.3462 8.93337 17.6323 10.174 18.8756C11.4146 20.1189 14.6935 18.8487 17.4977 16.0383Z" fill="#EFE9F4"/>
<path d="M52.3633 18.6348H63.3496C68.7988 18.6348 72.4902 22.168 72.4902 27.6172C72.4902 33.0312 68.6055 36.5645 62.9629 36.5645H58.8145V44H52.3633V18.6348ZM58.8145 23.5742V31.7129H61.6094C64.3516 31.7129 65.9688 30.2891 65.9688 27.6348C65.9688 24.998 64.3516 23.5742 61.6445 23.5742H58.8145ZM92.3008 38.7969V44H75.3555V18.6348H81.8066V38.7969H92.3008ZM111.936 44L110.336 38.4277H102.039L100.422 44H93.8477L102.373 18.6348H110.266L118.791 44H111.936ZM106.117 24.0137L103.287 33.7871H109.07L106.258 24.0137H106.117ZM131.289 44H124.838V35.2812L116.102 18.6348H123.027L128.072 29.1816H128.195L133.223 18.6348H140.025L131.289 35.2812V44Z" fill="white"/>
</svg>
