<svg width="31" height="31" viewBox="0 0 31 31" fill="none" xmlns="http://www.w3.org/2000/svg">
<path d="M15.681 30.774C23.5313 30.774 29.8953 24.3961 29.8953 16.5285C29.8953 8.66093 23.5313 2.28299 15.681 2.28299C7.83064 2.28299 1.46667 8.66093 1.46667 16.5285C1.46667 24.3961 7.83064 30.774 15.681 30.774Z" fill="#E6DCEB"/>
<path d="M15.681 29.0095C23.2072 29.0095 29.3084 22.8949 29.3084 15.3521C29.3084 7.80939 23.2072 1.69479 15.681 1.69479C8.15479 1.69479 2.05359 7.80939 2.05359 15.3521C2.05359 22.8949 8.15479 29.0095 15.681 29.0095Z" fill="#FBFDFC"/>
<path d="M15.681 26.9368C22.065 26.9368 27.2403 21.7502 27.2403 15.3521C27.2403 8.95411 22.065 3.76749 15.681 3.76749C9.29703 3.76749 4.12177 8.95411 4.12177 15.3521C4.12177 21.7502 9.29703 26.9368 15.681 26.9368Z" fill="#1D7999"/>
<path d="M23.3403 23.0297C27.5706 18.79 27.5706 11.9162 23.3402 7.67656C19.1099 3.43691 12.2511 3.43691 8.02077 7.67656C3.79041 11.9162 3.79041 18.79 8.02077 23.0297C12.2511 27.2693 19.1099 27.2693 23.3403 23.0297Z" fill="#25A7DF"/>
<path d="M6.30162 19.3911C6.30162 13.3971 11.595 8.53467 18.1236 8.53467C20.9575 8.53467 23.5567 9.45337 25.5913 10.9771C23.9144 7.16221 20.1079 4.49573 15.6809 4.49573C9.70009 4.49573 4.84833 9.35814 4.84833 15.3521C4.84833 17.4248 5.42965 19.3575 6.43018 21.0044C6.34634 20.4778 6.30162 19.94 6.30162 19.3911Z" fill="#5EC3EF"/>
<path d="M10.5611 10.2508C11.9189 8.89012 12.5311 7.29758 11.9287 6.69379C11.3262 6.09 9.73714 6.70361 8.37941 8.06432C7.02168 9.42503 6.40942 11.0176 7.01188 11.6214C7.61435 12.2252 9.2034 11.6115 10.5611 10.2508Z" fill="#EFE9F4"/>
<path d="M17.3463 17.2867V21.8627H14.047V17.2867H9.85449V14.0027H14.047V9.44818H17.3463V14.0027H21.5388V17.2867H17.3463Z" fill="white"/>
</svg>
