<svg width="165" height="53" viewBox="0 0 165 53" fill="none" xmlns="http://www.w3.org/2000/svg">
<path d="M13.1433 52.3251C9.21961 52.3251 5.53403 50.4044 3.02784 47.0517C1.07732 44.4377 0 41.119 0 37.7095V14.6155C0 10.8196 1.30413 7.22821 3.65155 4.50058C6.15775 1.60247 9.52579 0 13.1433 0H151.619C155.191 0 158.536 1.56837 161.031 4.40965C163.435 7.16001 164.762 10.7855 164.762 14.6155V37.7095C164.762 41.5509 163.435 45.1764 161.031 47.9154C158.536 50.7567 155.191 52.3251 151.619 52.3251H13.1433Z" fill="#EADBE6"/>
<path d="M14.0959 48.9723C10.1949 48.9723 6.53198 47.1766 4.04847 44.0512C2.10929 41.6077 1.03197 38.5164 1.03197 35.3456V13.7973C1.03197 10.2627 2.32475 6.90998 4.66084 4.36419C7.14435 1.65929 10.5011 0.170471 14.0959 0.170471H151.71C155.259 0.170471 158.582 1.6252 161.065 4.28464C163.458 6.8418 164.774 10.2286 164.774 13.8086V35.3456C164.774 38.9256 163.458 42.3124 161.065 44.8695C158.582 47.5176 155.27 48.9837 151.71 48.9837H14.0959V48.9723Z" fill="#FBFDFC"/>
<path d="M14.0959 45.1878C11.3516 45.1878 8.76599 43.9149 6.99692 41.6873C5.59073 39.9143 4.80825 37.664 4.80825 35.3342V13.7973C4.80825 11.2174 5.74949 8.77387 7.43918 6.92135C9.19692 5.00065 11.567 3.9437 14.0959 3.9437H151.71C154.204 3.9437 156.552 4.97791 158.31 6.85315C160.045 8.70567 160.997 11.1719 160.997 13.7859V35.3228C160.997 37.9368 160.045 40.403 158.31 42.2555C156.552 44.1308 154.216 45.165 151.71 45.165H14.0959V45.1878Z" fill="#1D7999"/>
<path d="M151.71 43.9262H14.0959C11.6464 43.9262 9.45775 42.7556 7.98352 40.9031C6.7928 39.4029 6.06702 37.4594 6.06702 35.3342V13.7972C6.06702 11.456 6.94022 9.33072 8.36909 7.7737C9.82064 6.19395 11.8505 5.20517 14.0959 5.20517H151.71C153.932 5.20517 155.928 6.17122 157.391 7.71688C158.843 9.2739 159.739 11.4219 159.739 13.7858V35.3228C159.739 37.6981 158.843 39.8461 157.391 41.3918C155.928 42.9602 153.921 43.9262 151.71 43.9262Z" fill="#25A7DF"/>
<path d="M7.97219 40.9031C6.78146 39.4029 6.05569 37.4594 6.05569 35.3342V13.7972C6.05569 11.456 6.92888 9.33072 8.35775 7.7737C9.8093 6.19395 11.8392 5.20517 14.0846 5.20517H151.698C153.694 5.20517 155.52 5.98939 156.926 7.27365C157.085 7.42139 157.38 7.71688 157.38 7.71688C16.1145 14.1382 7.97219 40.9031 7.97219 40.9031Z" fill="#5EC3EF"/>
<path d="M15.1158 13.8551C17.5382 11.4274 18.6332 8.58854 17.5615 7.51447C16.4897 6.4404 13.6572 7.53778 11.2347 9.96554C8.81228 12.3933 7.7173 15.2321 8.78902 16.3062C9.86074 17.3802 12.6933 16.2829 15.1158 13.8551Z" fill="#EFE9F4"/>
<path d="M31.1855 21.3386V26.5437H33.915C35.6289 26.5437 36.6445 25.5408 36.6445 23.9539C36.6445 22.3923 35.5654 21.3386 33.9023 21.3386H31.1855ZM31.1855 29.7302V36.1414H26.5264V17.822H34.3721C38.9424 17.822 41.4053 20.0818 41.4053 23.865C41.4053 26.1121 40.2754 28.1687 38.2695 29.0447L41.9385 36.1414H36.708L33.5596 29.7302H31.1855ZM56.2969 32.3835V36.1414H43.7412V17.822H56.2969V21.5798H48.4004V25.2234H55.8271V28.6511H48.4004V32.3835H56.2969ZM58.3408 30.8347H62.7715C62.9365 32.0916 64.3457 32.9294 66.0723 32.9294C67.8877 32.9294 69.0684 32.1169 69.0684 31.0125C69.0684 29.9968 68.2939 29.5017 66.2119 29.0701L63.8125 28.6003C60.4355 27.9529 58.6963 26.1248 58.6963 23.3445C58.6963 19.7898 61.7432 17.5046 65.9834 17.5046C70.5664 17.5046 73.2705 19.7263 73.3213 23.1667H69.0303C68.9414 21.8337 67.71 21.0339 66.0342 21.0339C64.4092 21.0339 63.3301 21.7703 63.3301 22.8875C63.3301 23.8777 64.1426 24.4236 66.0596 24.8171L68.4336 25.2615C72.0518 25.9597 73.6768 27.5974 73.6768 30.4919C73.6768 34.1355 70.668 36.4587 65.9453 36.4587C61.2734 36.4587 58.3916 34.3894 58.3408 30.8347ZM84.7598 36.1414H80.1133V21.5798H75.0605V17.822H89.8125V21.5798H84.7598V36.1414ZM101.391 36.1414L100.235 32.1169H94.2432L93.0752 36.1414H88.3271L94.4844 17.822H100.185L106.342 36.1414H101.391ZM97.1885 21.7068L95.1445 28.7654H99.3213L97.29 21.7068H97.1885ZM112.766 21.3386V26.5437H115.495C117.209 26.5437 118.225 25.5408 118.225 23.9539C118.225 22.3923 117.146 21.3386 115.482 21.3386H112.766ZM112.766 29.7302V36.1414H108.106V17.822H115.952C120.522 17.822 122.985 20.0818 122.985 23.865C122.985 26.1121 121.855 28.1687 119.85 29.0447L123.519 36.1414H118.288L115.14 29.7302H112.766ZM134.221 36.1414H129.574V21.5798H124.521V17.822H139.273V21.5798H134.221V36.1414Z" fill="white"/>
</svg>
