<svg width="191" height="61" viewBox="0 0 191 61" fill="none" xmlns="http://www.w3.org/2000/svg">
<path d="M15.2144 60.5702C10.6724 60.5702 6.40606 58.3469 3.50496 54.4659C1.24708 51.44 0 47.5984 0 43.6516V16.9186C0 12.5245 1.50963 8.3672 4.22695 5.20976C7.12806 1.85498 11.0268 3.8147e-06 15.2144 3.8147e-06H175.51C179.645 3.8147e-06 183.518 1.81551 186.406 5.10451C189.189 8.28826 190.725 12.485 190.725 16.9186V43.6516C190.725 48.0983 189.189 52.2951 186.406 55.4657C183.518 58.7547 179.645 60.5702 175.51 60.5702H15.2144Z" fill="#EADBE6"/>
<path d="M16.3171 56.6892C11.8013 56.6892 7.56126 54.6105 4.68641 50.9926C2.44166 48.1641 1.19458 44.5857 1.19458 40.9152V15.9714C1.19458 11.8798 2.69108 7.99883 5.39528 5.05188C8.27013 1.92075 12.1558 0.19733 16.3171 0.19733H175.615C179.724 0.19733 183.57 1.88129 186.445 4.9598C189.215 7.9199 190.738 11.8404 190.738 15.9845V40.9152C190.738 45.0593 189.215 48.9798 186.445 51.9399C183.57 55.0052 179.737 56.7024 175.615 56.7024H16.3171V56.6892Z" fill="#FBFDFC"/>
<path d="M16.3171 52.3082C13.1403 52.3082 10.1473 50.8348 8.09946 48.2562C6.47169 46.2039 5.56592 43.599 5.56592 40.902V15.9714C5.56592 12.985 6.65547 10.1564 8.61142 8.01199C10.6461 5.78863 13.3897 4.56512 16.3171 4.56512H175.615C178.503 4.56512 181.221 5.7623 183.255 7.93304C185.264 10.0775 186.367 12.9323 186.367 15.9582V40.8888C186.367 43.9147 185.264 46.7696 183.255 48.914C181.221 51.0847 178.516 52.2819 175.615 52.2819H16.3171V52.3082Z" fill="#1D7999"/>
<path d="M175.615 50.8479H16.3171C13.4816 50.8479 10.9481 49.4928 9.24156 47.3484C7.86321 45.6118 7.02307 43.3621 7.02307 40.902V15.9713C7.02307 13.2612 8.03386 10.801 9.68789 8.99866C11.3682 7.16998 13.7179 6.02539 16.3171 6.02539H175.615C178.188 6.02539 180.499 7.14366 182.192 8.93288C183.872 10.7353 184.909 13.2217 184.909 15.9582V40.8888C184.909 43.6384 183.872 46.1249 182.192 47.9141C180.499 49.7297 178.175 50.8479 175.615 50.8479Z" fill="#25A7DF"/>
<path d="M9.22838 47.3484C7.85003 45.6118 7.00989 43.3621 7.00989 40.902V15.9713C7.00989 13.2612 8.02068 10.801 9.6747 8.99866C11.355 7.16998 13.7047 6.02539 16.3039 6.02539H175.602C177.913 6.02539 180.026 6.93318 181.654 8.41981C181.838 8.59084 182.179 8.93288 182.179 8.93288C18.6537 16.366 9.22838 47.3484 9.22838 47.3484Z" fill="#5EC3EF"/>
<path d="M17.4977 16.0383C20.3018 13.228 21.5693 9.94188 20.3287 8.69856C19.0881 7.45524 15.8092 8.72555 13.0051 11.5359C10.2009 14.3462 8.93337 17.6323 10.174 18.8756C11.4146 20.1189 14.6935 18.8487 17.4977 16.0383Z" fill="#EFE9F4"/>
<path d="M51.9941 34.5098H55.7432C55.8828 35.5732 57.0752 36.2822 58.5361 36.2822C60.0723 36.2822 61.0713 35.5947 61.0713 34.6602C61.0713 33.8008 60.416 33.3818 58.6543 33.0166L56.624 32.6191C53.7666 32.0713 52.2949 30.5244 52.2949 28.1719C52.2949 25.1641 54.873 23.2305 58.4609 23.2305C62.3389 23.2305 64.627 25.1104 64.6699 28.0215H61.0391C60.9639 26.8936 59.9219 26.2168 58.5039 26.2168C57.1289 26.2168 56.2158 26.8398 56.2158 27.7852C56.2158 28.623 56.9033 29.085 58.5254 29.418L60.5342 29.7939C63.5957 30.3848 64.9707 31.7705 64.9707 34.2197C64.9707 37.3027 62.4248 39.2686 58.4287 39.2686C54.4756 39.2686 52.0371 37.5176 51.9941 34.5098ZM72.0928 29.7295C70.9219 29.7295 70.0518 30.5996 69.9551 31.8135H74.209C74.1445 30.5674 73.2959 29.7295 72.0928 29.7295ZM74.2949 35.3047H77.7324C77.3672 37.7217 75.2188 39.2793 72.1572 39.2793C68.4297 39.2793 66.2061 36.9912 66.2061 33.21C66.2061 29.4287 68.4512 27.0225 72.0283 27.0225C75.5518 27.0225 77.7969 29.332 77.7969 32.9092V33.9834H69.9014V34.2197C69.9014 35.6162 70.8359 36.583 72.2109 36.583C73.2314 36.583 74.0264 36.0996 74.2949 35.3047ZM80.2354 24.6807H84.0488V27.3018H86.1543V30.1055H84.0488V35.0146C84.0488 35.8203 84.4785 36.2285 85.3916 36.2285C85.6924 36.2285 85.918 36.2178 86.1436 36.1748V38.8818C85.7783 38.957 85.2197 39.0215 84.4785 39.0215C81.4385 39.0215 80.2354 38.0869 80.2354 35.7881V30.1055H78.6455V27.3018H80.2354V24.6807ZM88.6787 24.6807H92.4922V27.3018H94.5977V30.1055H92.4922V35.0146C92.4922 35.8203 92.9219 36.2285 93.835 36.2285C94.1357 36.2285 94.3613 36.2178 94.5869 36.1748V38.8818C94.2217 38.957 93.6631 39.0215 92.9219 39.0215C89.8818 39.0215 88.6787 38.0869 88.6787 35.7881V30.1055H87.0889V27.3018H88.6787V24.6807ZM96.1982 39V27.3018H100.001V39H96.1982ZM98.0996 26.3564C96.9932 26.3564 96.1445 25.54 96.1445 24.4873C96.1445 23.4346 96.9932 22.6289 98.0996 22.6289C99.2061 22.6289 100.044 23.4346 100.044 24.4873C100.044 25.54 99.2061 26.3564 98.0996 26.3564ZM101.859 39V27.3018H105.565V29.5039H105.641C106.242 27.9463 107.467 27.0762 109.261 27.0762C111.871 27.0762 113.321 28.709 113.321 31.4912V39H109.519V32.3076C109.519 30.9756 108.885 30.1807 107.639 30.1807C106.425 30.1807 105.673 31.0938 105.673 32.3828V39H101.859ZM120.852 36.0889C122.216 36.0889 123.054 35.0361 123.054 33.1455C123.054 31.2764 122.205 30.1055 120.852 30.1055C119.487 30.1055 118.66 31.2656 118.66 33.1455C118.66 35.0361 119.477 36.0889 120.852 36.0889ZM120.733 43.4043C117.403 43.4043 115.287 41.8896 115.072 39.7627H118.757C118.939 40.4395 119.734 40.9121 120.819 40.9121C122.28 40.9121 123.043 40.1279 123.043 38.9678V36.8193H122.968C122.506 38.0547 121.131 38.9033 119.412 38.9033C116.619 38.9033 114.761 36.7764 114.761 33.1133C114.761 29.375 116.533 27.1299 119.466 27.1299C121.163 27.1299 122.463 28.0537 122.989 29.375H123.064V27.3018H126.846V38.8711C126.846 41.6641 124.375 43.4043 120.733 43.4043ZM128.5 30.8467C128.5 28.5049 130.498 27.0225 133.721 27.0225C136.911 27.0225 138.898 28.5371 138.92 30.9541H135.439C135.407 30.1162 134.741 29.5898 133.688 29.5898C132.754 29.5898 132.152 29.998 132.152 30.5996C132.152 31.0615 132.582 31.3945 133.463 31.5771L135.912 32.0713C138.243 32.5654 139.242 33.5215 139.242 35.2939C139.242 37.7217 137.04 39.2793 133.774 39.2793C130.358 39.2793 128.382 37.7217 128.221 35.3262H131.916C132.023 36.1963 132.722 36.7119 133.839 36.7119C134.849 36.7119 135.472 36.3467 135.472 35.7236C135.472 35.251 135.117 34.9824 134.204 34.7891L131.991 34.3271C129.703 33.8438 128.5 32.6406 128.5 30.8467Z" fill="white"/>
</svg>
