<svg width="191" height="61" viewBox="0 0 191 61" fill="none" xmlns="http://www.w3.org/2000/svg">
<path d="M15.2144 60.5703C10.6724 60.5703 6.40606 58.3469 3.50496 54.4659C1.24708 51.44 0 47.5985 0 43.6517V16.9187C0 12.5246 1.50963 8.36726 4.22695 5.20982C7.12806 1.85504 11.0268 6.10352e-05 15.2144 6.10352e-05H175.51C179.645 6.10352e-05 183.518 1.81556 186.406 5.10456C189.189 8.28832 190.725 12.4851 190.725 16.9187V43.6517C190.725 48.0984 189.189 52.2952 186.406 55.4657C183.518 58.7547 179.645 60.5703 175.51 60.5703H15.2144Z" fill="#EADBE6"/>
<path d="M16.3171 56.6893C11.8013 56.6893 7.56126 54.6106 4.68641 50.9927C2.44166 48.1642 1.19458 44.5857 1.19458 40.9152V15.9714C1.19458 11.8799 2.69108 7.99888 5.39528 5.05194C8.27013 1.92081 12.1558 0.197388 16.3171 0.197388H175.615C179.724 0.197388 183.57 1.88135 186.445 4.95985C189.215 7.91995 190.738 11.8405 190.738 15.9846V40.9152C190.738 45.0594 189.215 48.9798 186.445 51.9399C183.57 55.0053 179.737 56.7024 175.615 56.7024H16.3171V56.6893Z" fill="#FBFDFC"/>
<path d="M16.3171 52.3083C13.1403 52.3083 10.1473 50.8348 8.09946 48.2563C6.47169 46.2039 5.56592 43.599 5.56592 40.9021V15.9714C5.56592 12.985 6.65547 10.1565 8.61142 8.01205C10.6461 5.78869 13.3897 4.56519 16.3171 4.56519H175.615C178.503 4.56519 181.221 5.76236 183.255 7.9331C185.264 10.0775 186.367 12.9324 186.367 15.9583V40.8889C186.367 43.9148 185.264 46.7696 183.255 48.9141C181.221 51.0848 178.516 52.282 175.615 52.282H16.3171V52.3083Z" fill="#1D7999"/>
<path d="M175.615 50.848H16.3171C13.4816 50.848 10.9481 49.4929 9.24156 47.3485C7.86321 45.6119 7.02307 43.3622 7.02307 40.902V15.9714C7.02307 13.2613 8.03386 10.8011 9.68789 8.99872C11.3682 7.17004 13.7179 6.02545 16.3171 6.02545H175.615C178.188 6.02545 180.499 7.14372 182.192 8.93294C183.872 10.7353 184.909 13.2218 184.909 15.9582V40.8889C184.909 43.6385 183.872 46.125 182.192 47.9142C180.499 49.7297 178.175 50.848 175.615 50.848Z" fill="#25A7DF"/>
<path d="M9.22838 47.3485C7.85003 45.6119 7.00989 43.3622 7.00989 40.902V15.9714C7.00989 13.2613 8.02068 10.8011 9.6747 8.99872C11.355 7.17004 13.7047 6.02545 16.3039 6.02545H175.602C177.913 6.02545 180.026 6.93324 181.654 8.41987C181.838 8.5909 182.179 8.93294 182.179 8.93294C18.6537 16.3661 9.22838 47.3485 9.22838 47.3485Z" fill="#5EC3EF"/>
<path d="M17.4977 16.0384C20.3018 13.2281 21.5693 9.94194 20.3287 8.69862C19.0881 7.4553 15.8092 8.72561 13.0051 11.5359C10.2009 14.3462 8.93337 17.6324 10.174 18.8757C11.4146 20.119 14.6935 18.8487 17.4977 16.0384Z" fill="#EFE9F4"/>
<path d="M55.2285 36.6524H61.3633C61.5918 38.3926 63.543 39.5528 65.9336 39.5528C68.4473 39.5528 70.082 38.4278 70.082 36.8985C70.082 35.4922 69.0098 34.8067 66.127 34.209L62.8047 33.5587C58.1289 32.6622 55.7207 30.1309 55.7207 26.2813C55.7207 21.3594 59.9395 18.1954 65.8105 18.1954C72.1562 18.1954 75.9004 21.2715 75.9707 26.0352H70.0293C69.9062 24.1895 68.2012 23.0821 65.8809 23.0821C63.6309 23.0821 62.1367 24.1016 62.1367 25.6485C62.1367 27.0196 63.2617 27.7755 65.916 28.3204L69.2031 28.9356C74.2129 29.9024 76.4629 32.17 76.4629 36.1778C76.4629 41.2227 72.2969 44.4395 65.7578 44.4395C59.2891 44.4395 55.2988 41.5743 55.2285 36.6524ZM79.4863 18.6348H90.4727C95.9219 18.6348 99.6133 22.168 99.6133 27.6172C99.6133 33.0313 95.7285 36.5645 90.0859 36.5645H85.9375V44.0001H79.4863V18.6348ZM85.9375 23.5743V31.713H88.7324C91.4746 31.713 93.0918 30.2891 93.0918 27.6348C93.0918 24.9981 91.4746 23.5743 88.7676 23.5743H85.9375ZM108.93 44.0001H102.479V18.6348H108.93V44.0001ZM118.896 44.0001H112.779V18.6348H117.93L128.688 33.3829H128.828V18.6348H134.945V44.0001H129.848L119.037 29.1114H118.896V44.0001Z" fill="white"/>
</svg>
