<svg width="26" height="57" viewBox="0 0 26 57" fill="none" xmlns="http://www.w3.org/2000/svg">
<g style="mix-blend-mode:multiply">
<path opacity="0.04" d="M8.74092 54.4054L3.85211 17.1482C2.96097 11.6788 7.19161 5.00006 12.3643 5.00006C17.5336 5.00006 21.4509 10.0094 20.5598 15.48L14.2155 54.4054C13.8525 56.6324 9.10394 56.6324 8.74092 54.4054Z" fill="#FAFAFA"/>
<path opacity="0.08" d="M8.81217 54.2728L3.86567 17.053C2.97341 11.5983 7.19161 5.00006 12.3643 5.00006C17.5336 5.00006 21.4509 9.99692 20.5598 15.4516L14.2155 54.2728C13.8525 56.4941 9.17518 56.4941 8.81217 54.2728Z" fill="#F5F5F6"/>
<path opacity="0.12" d="M8.88793 54.1402L3.8781 16.9578C2.98696 11.5178 7.1916 5.00006 12.3643 5.00006C17.5335 5.00006 21.4509 9.98672 20.5598 15.4267L14.2155 54.1436C13.8525 56.3558 9.24642 56.3558 8.88793 54.1402Z" fill="#F0F1F1"/>
<path opacity="0.15" d="M8.95356 54.0076L3.8906 16.8638C2.99946 11.4385 7.19164 5.00006 12.3643 5.00006C17.5336 5.00006 21.451 9.96972 20.5598 15.395L14.2156 54.0076C13.8526 56.2164 9.31657 56.2164 8.95356 54.0076Z" fill="#EBECEC"/>
<path opacity="0.19" d="M9.02479 53.8738L3.90302 16.7686C3.00736 11.358 7.19163 5.00006 12.3643 5.00006C17.5336 5.00006 21.451 9.95612 20.5598 15.3666L14.2156 53.8738C13.8525 56.0781 9.3878 56.0781 9.02479 53.8738Z" fill="#E7E7E8"/>
<path opacity="0.23" d="M9.09602 53.7412L3.91205 16.6734C3.01978 11.2776 7.19161 5.00006 12.3598 5.00006C17.529 5.00006 21.4464 9.94252 20.5553 15.3383L14.211 53.7412C13.8525 55.9388 9.45904 55.9388 9.09602 53.7412Z" fill="#E2E2E3"/>
<path opacity="0.27" d="M9.16616 53.6086L3.92904 16.5793C3.0379 11.1971 7.19164 5.00006 12.3643 5.00006C17.5336 5.00006 21.451 9.92892 20.5598 15.3134L14.2156 53.612C13.8525 55.8005 9.52917 55.8005 9.16616 53.6086Z" fill="#DDDDDE"/>
<path opacity="0.31" d="M9.23741 53.476L3.94148 16.4841C3.05034 11.12 7.19164 5.00006 12.3643 5.00006C17.5336 5.00006 21.451 9.91532 20.5598 15.2828L14.2156 53.476C13.8526 55.66 9.60042 55.66 9.23741 53.476Z" fill="#D8D9D9"/>
<path opacity="0.35" d="M9.30866 53.3434L3.95392 16.3889C3.06278 11.0373 7.19164 5.00006 12.3643 5.00006C17.5336 5.00006 21.451 9.90172 20.5598 15.2544L14.2156 53.3434C13.8526 55.5228 9.67167 55.5228 9.30866 53.3434Z" fill="#D3D4D5"/>
<path opacity="0.38" d="M9.37878 53.2108L3.96636 16.2937C3.07523 10.9568 7.19165 5.00006 12.3643 5.00006C17.5336 5.00006 21.451 9.88925 20.5598 15.2261L14.2156 53.2108C13.8526 55.3846 9.74179 55.3846 9.37878 53.2108Z" fill="#CECFD0"/>
<path opacity="0.42" d="M9.45338 53.0782L3.97989 16.1996C3.08762 10.8764 7.1916 5.00006 12.3643 5.00006C17.5335 5.00006 21.4509 9.87338 20.5598 15.2L14.2155 53.0805C13.8525 55.2452 9.813 55.2452 9.45338 53.0782Z" fill="#C9CACB"/>
<path opacity="0.46" d="M9.52124 52.9456L3.99234 16.1067C3.1012 10.7982 7.19614 5.00006 12.3609 5.00006C17.5302 5.00006 21.4476 9.86205 20.5564 15.1694L14.2121 52.9456C13.8525 55.1069 9.88425 55.1069 9.52124 52.9456Z" fill="#C4C5C7"/>
<path opacity="0.5" d="M9.59134 52.8119L4.00477 16.0092C3.11363 10.7166 7.19161 5.00006 12.3643 5.00006C17.5336 5.00006 21.4509 9.84845 20.5598 15.1411L14.2155 52.8119C13.8525 54.9686 9.95549 54.9686 9.59134 52.8119Z" fill="#C0C1C2"/>
<path opacity="0.54" d="M9.66259 52.6793L4.01722 15.914C3.12608 10.6361 7.19161 5.00006 12.3643 5.00006C17.5336 5.00006 21.4509 9.83485 20.5598 15.1139L14.2155 52.6793C13.8525 54.8292 10.0256 54.8292 9.66259 52.6793Z" fill="#BBBCBD"/>
<path opacity="0.58" d="M9.73387 52.5467L4.02516 15.82C3.13855 10.5534 7.19164 5.00006 12.3643 5.00006C17.5336 5.00006 21.451 9.82125 20.5598 15.0867L14.2156 52.5478C13.8526 54.691 10.0969 54.691 9.73387 52.5467Z" fill="#B6B7B9"/>
<path opacity="0.62" d="M9.80506 52.4141L4.0432 15.7248C3.15094 10.4752 7.19158 5.00006 12.3643 5.00006C17.5335 5.00006 21.4509 9.80765 20.5598 15.0572L14.2155 52.4141C13.8525 54.5516 10.1681 54.5516 9.80506 52.4141Z" fill="#B1B2B4"/>
<path opacity="0.65" d="M9.87523 52.2815L4.0557 15.6296C3.16457 10.3958 7.19164 5.00006 12.3643 5.00006C17.5336 5.00006 21.451 9.79405 20.5598 15.0289L14.2156 52.2815C13.8526 54.4133 10.2382 54.4133 9.87523 52.2815Z" fill="#ACADAF"/>
<path opacity="0.69" d="M9.94644 52.1466L4.0681 15.54C3.17696 10.3154 7.1916 5.00006 12.3643 5.00006C17.5335 5.00006 21.4509 9.78158 20.5598 15.0006L14.2155 52.1466C13.8525 54.275 10.3095 54.275 9.94644 52.1466Z" fill="#A7A8AB"/>
<path opacity="0.73" d="M10.0188 52.0163L4.0817 15.4403C3.18943 10.2349 7.19163 5.00006 12.3643 5.00006C17.5336 5.00006 21.451 9.76798 20.5598 14.9734L14.2156 52.0174C13.8525 54.1356 10.3807 54.1356 10.0188 52.0163Z" fill="#A2A4A6"/>
<path opacity="0.77" d="M10.0878 51.8837L4.0941 15.3451C3.20183 10.1544 7.19159 5.00006 12.3643 5.00006C17.5335 5.00006 21.4509 9.76005 20.5598 14.945L14.2155 51.8837C13.8525 53.9974 10.4508 53.9974 10.0878 51.8837Z" fill="#9D9FA1"/>
<path opacity="0.81" d="M10.159 51.7511L4.10654 15.2499C3.2154 10.074 7.1916 5.00006 12.3643 5.00006C17.5335 5.00006 21.4509 9.74078 20.5598 14.9167L14.2155 51.75C13.8525 53.8591 10.5221 53.8591 10.159 51.7511Z" fill="#989A9C"/>
<path opacity="0.85" d="M10.2303 51.6174L4.12355 15.1547C3.23355 9.99465 7.19164 5.00006 12.3643 5.00006C17.5336 5.00006 21.451 9.72718 20.5598 14.8884L14.2156 51.6174C13.8526 53.7197 10.5933 53.7197 10.2303 51.6174Z" fill="#949598"/>
<path opacity="0.88" d="M10.3005 51.4848L4.13146 15.0606C3.24033 9.91418 7.19165 5.00006 12.3643 5.00006C17.5336 5.00006 21.451 9.71358 20.5598 14.86L14.2156 51.4848C13.8526 53.5814 10.6646 53.5814 10.3005 51.4848Z" fill="#8F9093"/>
<path opacity="0.92" d="M10.3716 51.3533L4.14387 14.9654C3.25273 9.83372 7.1916 5.00006 12.3643 5.00006C17.5335 5.00006 21.4509 9.69998 20.5598 14.8317L14.2155 51.3533C13.8525 53.442 10.7347 53.442 10.3716 51.3533Z" fill="#8A8C8E"/>
<path opacity="0.96" d="M10.4429 51.2196L4.15749 14.8702C3.26522 9.75325 7.19164 5.00006 12.3643 5.00006C17.5336 5.00006 21.451 9.68638 20.5598 14.8034L14.2156 51.2196C13.8526 53.3038 10.8105 53.3038 10.4429 51.2196Z" fill="#85878A"/>
<path d="M10.5142 51.087L4.16992 14.775C3.9607 13.5767 4.01566 12.347 4.33096 11.1723C4.64626 9.9975 5.21425 8.90611 5.99509 7.97466C6.77592 7.04322 7.75068 6.29429 8.85097 5.78043C9.95126 5.26656 11.1504 5.00021 12.3643 5.00006C13.5783 5.00005 14.7776 5.26627 15.878 5.78007C16.9784 6.29386 17.9533 7.04276 18.7343 7.97423C19.5152 8.90569 20.0833 9.99715 20.3987 11.172C20.7141 12.3468 20.7691 13.5766 20.5598 14.775L14.2156 51.087C13.8526 53.1666 10.8772 53.1666 10.5142 51.087Z" fill="#808285"/>
</g>
<path d="M10.5141 51.087L4.16986 14.775C3.96064 13.5767 4.0156 12.347 4.3309 11.1723C4.6462 9.9975 5.21419 8.90611 5.99502 7.97466C6.77586 7.04322 7.75062 6.29429 8.85091 5.78043C9.9512 5.26656 11.1503 5.00021 12.3642 5.00006C13.5782 5.00005 14.7775 5.26627 15.878 5.78007C16.9784 6.29386 17.9533 7.04276 18.7342 7.97423C19.5152 8.90569 20.0833 9.99715 20.3987 11.172C20.714 12.3468 20.769 13.5766 20.5598 14.775L14.2155 51.087C13.8525 53.1666 10.8771 53.1666 10.5141 51.087Z" fill="url(#paint0_linear_12_1709)"/>
<path style="mix-blend-mode:color-dodge" d="M18.7918 18.7919C17.5548 20.0289 15.9779 20.8706 14.2606 21.2104C12.5433 21.5503 10.7627 21.3731 9.14393 20.7012C7.52515 20.0294 6.14089 18.8931 5.16619 17.4359C4.19149 15.9788 3.67012 14.2663 3.66801 12.515C3.66589 10.7637 4.18313 9.05215 5.15431 7.59687C6.12549 6.14159 7.50699 5.0079 9.12416 4.33913C10.7413 3.67037 12.5215 3.49656 14.2396 3.83969C15.9578 4.18283 17.5366 5.0275 18.7767 6.2669C20.4374 7.93057 21.3717 10.1837 21.3745 12.5318C21.3773 14.88 20.4485 17.1313 18.7918 18.7919Z" fill="url(#paint1_radial_12_1709)"/>
<path style="mix-blend-mode:color-dodge" d="M16.7983 10.5003C17.4231 11.1245 17.8492 11.9195 18.0227 12.7849C18.1962 13.6502 18.1093 14.547 17.773 15.3619C17.4367 16.1767 16.866 16.8731 16.1333 17.3628C15.4006 17.8525 14.5386 18.1136 13.6564 18.1131C12.7742 18.1126 11.9114 17.8505 11.1771 17.3599C10.4428 16.8694 9.86994 16.1724 9.53104 15.3572C9.19214 14.5419 9.10238 13.645 9.27311 12.7799C9.44385 11.9147 9.86741 11.1202 10.4902 10.4967C11.3256 9.66095 12.4593 9.19185 13.6422 9.19253C14.8251 9.19321 15.9604 9.6636 16.7983 10.5003Z" fill="url(#paint2_radial_12_1709)"/>
<defs>
<linearGradient id="paint0_linear_12_1709" x1="4.0432" y1="28.8227" x2="20.6864" y2="28.8227" gradientUnits="userSpaceOnUse">
<stop stop-color="#323232"/>
<stop offset="0.42" stop-color="#424242"/>
<stop offset="0.46" stop-color="#484848"/>
<stop offset="0.56" stop-color="#525252"/>
<stop offset="0.69" stop-color="#555555"/>
<stop offset="1" stop-color="#5C5C5C"/>
</linearGradient>
<radialGradient id="paint1_radial_12_1709" cx="0" cy="0" r="1" gradientUnits="userSpaceOnUse" gradientTransform="translate(12.5403 12.6043) rotate(-45) scale(8.84465 8.86378)">
<stop stop-color="#FFDD99"/>
<stop offset="0.21" stop-color="#E1C089"/>
<stop offset="0.4" stop-color="#9C855F"/>
<stop offset="0.61" stop-color="#5A4D37"/>
<stop offset="0.79" stop-color="#292319"/>
<stop offset="0.92" stop-color="#0B0A07"/>
<stop offset="1"/>
</radialGradient>
<radialGradient id="paint2_radial_12_1709" cx="0" cy="0" r="1" gradientUnits="userSpaceOnUse" gradientTransform="translate(13.6662 13.7318) rotate(-45) scale(4.45569 4.46532)">
<stop stop-color="#FFDD99"/>
<stop offset="0.21" stop-color="#E1C089"/>
<stop offset="0.4" stop-color="#9C855F"/>
<stop offset="0.61" stop-color="#5A4D37"/>
<stop offset="0.79" stop-color="#292319"/>
<stop offset="0.92" stop-color="#0B0A07"/>
<stop offset="1"/>
</radialGradient>
</defs>
</svg>
