<svg width="115" height="115" viewBox="0 0 115 115" fill="none" xmlns="http://www.w3.org/2000/svg">
<path d="M62.8067 109.388C89.1092 106.63 108.187 82.9785 105.417 56.5593C102.648 30.1401 79.0809 10.9581 52.7784 13.7151C26.4758 16.4721 7.39833 40.1241 10.1676 66.5433C12.9368 92.9625 36.5042 112.145 62.8067 109.388Z" fill="#EADBE6"/>
<path d="M62.1856 103.462C87.4021 100.819 105.692 78.1435 103.037 52.8151C100.382 27.4868 77.7878 9.09681 52.5713 11.74C27.3548 14.3832 9.06502 37.0586 11.7199 62.3869C14.3748 87.7153 36.9691 106.105 62.1856 103.462Z" fill="#FBFDFC"/>
<path d="M61.456 96.5021C82.8456 94.26 98.3597 75.0259 96.1077 53.5415C93.8557 32.0571 74.6904 16.458 53.3009 18.7001C31.9113 20.9421 16.3972 40.1762 18.6492 61.6606C20.9012 83.1451 40.0665 98.7441 61.456 96.5021Z" fill="#A2195B"/>
<path d="M85.7447 80.6866C98.4262 64.9643 96.0067 41.8821 80.3407 29.1311C64.6746 16.3802 41.6944 18.7889 29.0129 34.5113C16.3313 50.2336 18.7508 73.3158 34.4169 86.0667C50.0829 98.8177 73.0632 96.4089 85.7447 80.6866Z" fill="#D8086D"/>
<path d="M27.3747 74.4577C25.265 54.33 41.2888 36.1431 63.1629 33.8503C72.658 32.855 81.6898 35.0272 89.043 39.4292C82.0819 27.2079 68.3897 19.5907 53.5572 21.1454C33.5184 23.2459 18.9741 41.2777 21.0839 61.4054C21.8134 68.3654 24.4414 74.6511 28.3734 79.8301C27.9071 78.0913 27.568 76.3012 27.3747 74.4577Z" fill="#E65295"/>
<path d="M38.4304 42.2634C42.5005 37.2173 43.9914 31.6546 41.7603 29.8387C39.5292 28.0227 34.4211 30.6413 30.3509 35.6874C26.2808 40.7334 24.79 46.2962 27.0211 48.1121C29.2521 49.9281 34.3603 47.3095 38.4304 42.2634Z" fill="#EFE9F4"/>
<path d="M48.0819 33.7899C46.4425 33.9618 45.2515 35.4318 45.4233 37.0712L47.1874 53.9008L47.81 59.8406L48.5935 67.3157C48.5935 67.3157 42.5044 64.2245 39.5025 63.2761C38.6661 63.0115 37.8089 62.8907 36.9615 62.9795C32.5323 63.4437 32.593 67.4408 32.593 67.4408L41.1354 72.5505L48.2709 79.4927C50.8117 81.9627 54.3208 83.1787 57.8452 82.8093L72.0799 81.3172C76.4537 80.8587 79.6281 76.9409 79.1696 72.5672L77.4761 56.4105C77.2602 54.3513 75.5027 52.8037 73.4314 52.8467L53.1272 53.2782L51.3632 36.4485C51.1913 34.8091 49.7213 33.6181 48.0819 33.7899Z" fill="white"/>
</svg>
