<svg width="812" height="375" viewBox="0 0 812 375" fill="none" xmlns="http://www.w3.org/2000/svg">
<mask id="mask0_6_503" style="mask-type:alpha" maskUnits="userSpaceOnUse" x="-43" y="-250" width="870" height="869">
<rect x="-42.5" y="-250" width="869" height="869" fill="#7D2600"/>
</mask>
<g mask="url(#mask0_6_503)">
<path d="M-42.5 619.409H-35.548L389.955 186.34V187.363L43.3777 619.409H145.409L390.16 188.794V190.43L200.616 619.409H278.928L390.16 194.11V199.835L324.729 619.409H394.249V502.043V186.954L438.415 619.409H510.388L394.863 187.363L395.067 187.158L559.053 619.409H644.521L395.476 186.954L395.885 186.749L707.089 619.409H827.113L396.089 186.545L396.498 186.34H397.112L827.113 539.461V436.203L398.339 186.545H398.543L826.909 380.587V301.866L398.543 186.545L826.909 255.656V181.024L397.316 185.522L398.543 185.113L826.909 136.858V64.8847L399.156 185.113L826.909 15.8118V-70.8838L399.156 184.091L826.909 -134.27V-250H819.957L396.498 185.522L396.089 185.318L741.44 -250H639.818L395.681 185.113L395.272 184.909L584.407 -250H505.89L394.863 184.5V184.704L395.272 184.909V184.704L395.681 185.113L396.089 185.318L396.498 185.522H396.703H396.907L396.703 185.727L396.089 185.931L395.885 185.727L395.681 185.522H395.272L395.476 185.727H395.681L395.476 185.931L395.681 186.136L395.885 186.34L395.681 186.545V186.34L395.885 186.136H395.681L395.476 186.34V186.545L395.272 186.954L395.067 186.545V186.34V186.749V186.954V186.545V185.931L394.863 185.113L395.067 185.522V185.318L394.863 185.113L459.884 -250H389.955L393.227 184.704C392.818 184.704 392.613 184.704 392.409 184.704H392.204L345.585 -250H272.998L391.796 184.5L391.591 184.704L223.925 -250H137.639L391.182 184.704H390.569L74.4572 -250H-42.5V-245.297L389.955 184.909V185.727H389.751L-42.5 -165.554V-62.5005L388.524 185.318L388.933 185.522L388.32 185.318L-42.5 118.047V188.18L389.546 185.931L388.524 186.34L-42.5 354.211V440.906L386.888 188.18L-42.5 504.088V619.409Z" fill="#7D2600"/>
<path d="M-42.5 230.71V303.297L388.32 184.704L-42.5 230.71Z" fill="#7D2600"/>
<path d="M-64.3022 62.5236L-52.0668 -9.02482L390.223 186.925L-64.3022 62.5236Z" fill="#7D2600"/>
</g>
</svg>
